<svg width="32" height="32" xmlns="http://www.w3.org/2000/svg" version="1.1" xml:space="preserve">
 <title>ubuntu</title>

 <g>
  <title>Layer 1</title>
  <path d="m16,0c8.8,0 16,7.2 16,16s-7.2,16 -16,16s-16,-7.2 -16,-16s7.2,-16 16,-16zm4.4,23.6c-1,0.6 -1.4,1.9 -0.8,2.9s1.9,1.4 2.9,0.8c1,-0.6 1.4,-1.9 0.8,-2.9c-0.6,-1.1 -1.9,-1.4 -2.9,-0.8zm-4.4,-1.4c-0.9,0 -1.8,-0.2 -2.6,-0.6l-1.5,2.7c1.2,0.6 2.6,1 4.1,1c0.9,0 1.7,-0.1 2.5,-0.3c0.1,-0.9 0.6,-1.6 1.5,-2.1c0.8,-0.5 1.8,-0.5 2.6,-0.2c1.6,-1.5 2.6,-3.7 2.8,-6l-3,0c-0.5,3 -3.1,5.5 -6.4,5.5zm-6.2,-6.2c0,-2.1 1,-4 2.7,-5.1l-1.6,-2.6c-1.9,1.2 -3.3,3.1 -3.9,5.4c0.7,0.5 1.1,1.3 1.1,2.3c0,0.9 -0.4,1.8 -1.1,2.3c0.6,2.2 2,4.1 3.8,5.4l1.6,-2.6c-1.6,-1.1 -2.6,-3 -2.6,-5.1zm-4.7,-2.1c-1.2,0 -2.1,1 -2.1,2.1s1,2.1 2.1,2.1s2.1,-1 2.1,-2.1s-0.9,-2.1 -2.1,-2.1zm10.9,-4.1c3.3,0 5.9,2.5 6.2,5.7l3,0c-0.2,-2.4 -1.2,-4.5 -2.8,-6c-0.8,0.3 -1.8,0.3 -2.6,-0.2c-0.8,-0.5 -1.3,-1.3 -1.5,-2.1c-0.8,-0.2 -1.6,-0.3 -2.5,-0.3c-1.5,0 -2.9,0.3 -4.1,1l1.5,2.7c1,-0.6 1.9,-0.8 2.8,-0.8l0,0zm4.4,-1.4c1,0.6 2.3,0.2 2.9,-0.8c0.6,-1 0.2,-2.3 -0.8,-2.9c-1,-0.6 -2.3,-0.2 -2.9,0.8c-0.6,1 -0.3,2.3 0.8,2.9z" id="svg_1" fill="white"/>
 </g>
</svg>